<?xml version="1.0" encoding="UTF-8"?>
<svg version="1.1" xmlns="http://www.w3.org/2000/svg" width="512" height="512">
<path d="M0 0 C168.96 0 337.92 0 512 0 C512 168.96 512 337.92 512 512 C343.04 512 174.08 512 0 512 C0 343.04 0 174.08 0 0 Z " fill="#FEFEFD" transform="translate(0,0)"/>
<path d="M0 0 C168.96 0 337.92 0 512 0 C512 33.99 512 67.98 512 103 C343.04 103 174.08 103 0 103 C0 69.01 0 35.02 0 0 Z " fill="#000000" transform="translate(0,409)"/>
<path d="M0 0 C168.96 0 337.92 0 512 0 C512 33.99 512 67.98 512 103 C343.04 103 174.08 103 0 103 C0 69.01 0 35.02 0 0 Z " fill="#000000" transform="translate(0,0)"/>
<path d="M0 0 C3.13992356 1.16882765 5.7908355 2.37449234 8.4609375 4.3984375 C9.0897583 4.87176514 9.7185791 5.34509277 10.36645508 5.83276367 C11.0292749 6.34170166 11.69209473 6.85063965 12.375 7.375 C13.07326904 7.90520752 13.77153809 8.43541504 14.4909668 8.98168945 C21.76137333 14.52880098 28.89816054 20.23959638 36 26 C37.01191406 26.81597656 38.02382812 27.63195312 39.06640625 28.47265625 C44.85211042 33.16398523 50.48041637 37.99830323 56 43 C60.30336984 41.48348065 62.28218978 38.28164141 64.6875 34.625 C65.11812744 33.97885742 65.54875488 33.33271484 65.99243164 32.66699219 C70.0715514 26.31158791 73.12465453 19.56706082 76.04370117 12.61572266 C76.38892822 11.79894043 76.73415527 10.9821582 77.08984375 10.140625 C77.38753662 9.41391602 77.68522949 8.68720703 77.99194336 7.93847656 C79.06694689 5.87126222 80.27574709 4.55015063 82 3 C95.20577652 10.35621463 108.28288396 17.82339274 121 26 C116.70397768 46.69901665 98.52299344 61.74180106 82 73 C83.59007665 77.6369833 86.10025656 81.34367429 88.8125 85.375 C114 123.5570277 114 123.5570277 114 132 C112.78775757 132.30852905 112.78775757 132.30852905 111.55102539 132.62329102 C107.72074338 133.6000197 103.89129052 134.57994377 100.0625 135.5625 C99.36316345 135.74196167 98.6638269 135.92142334 97.94329834 136.10632324 C88.47049116 138.54174696 79.03292223 141.07276318 69.625 143.75 C62.18898579 145.86604843 54.75670382 147.81998882 47.21582031 149.52148438 C41.877341 150.74536596 36.63158357 152.21460129 31.375 153.75 C22.78373844 156.25448491 14.1528954 158.58054179 5.49102783 160.82629395 C4.08537469 161.19079312 2.68005691 161.5565881 1.27508545 161.92370605 C-0.70362834 162.44008647 -2.68359059 162.95134704 -4.6640625 163.4609375 C-5.81342285 163.75790527 -6.9627832 164.05487305 -8.14697266 164.36083984 C-11 165 -11 165 -14 165 C-16.38776806 133.67959553 -16.38776806 133.67959553 -16 120 C-5.40057521 116.77408811 5.50846846 115.23866235 16.4375 113.5625 C18.58432871 113.23126187 20.73106583 112.89943499 22.87779236 112.5675354 C24.29056287 112.34915223 25.70337378 112.1310302 27.1162262 111.91317749 C31.05655831 111.30470143 34.99438337 110.6831319 38.9296875 110.04296875 C46.93419472 108.74119768 54.89848231 107.52796407 63 107 C50.87200263 88.01172128 34.5148691 74.11740175 15 63 C14.28457031 62.59136719 13.56914062 62.18273437 12.83203125 61.76171875 C8.06095123 59.21386365 3.0350766 57.59026042 -2.10546875 55.94140625 C-4.540732 55.14937057 -6.92475099 54.29764476 -9.3125 53.375 C-12.85755723 52.05311425 -16.35236856 50.98790018 -20 50 C-19.33006546 45.77628375 -17.93463804 42.15429967 -16.26953125 38.22265625 C-15.86017586 37.25095741 -15.86017586 37.25095741 -15.44255066 36.2596283 C-14.57024236 34.19203733 -13.6914602 32.1272706 -12.8125 30.0625 C-12.24111471 28.71046462 -11.67014763 27.35825241 -11.09960938 26.00585938 C-7.43207594 17.323447 -3.72012814 8.6599843 0 0 Z " fill="#D3AF38" transform="translate(209,142)"/>
<path d="M0 0 C10.82936076 2.06273538 21.47822929 5.09885638 32.0859375 8.07543945 C39.82631962 10.24337173 47.59728414 12.28709788 55.37548828 14.31445312 C58.25000626 15.06530396 61.12308625 15.82151598 63.99609375 16.578125 C66.03903951 17.1146709 68.08200792 17.65113054 70.125 18.1875 C71.07270264 18.43749756 72.02040527 18.68749512 72.99682617 18.94506836 C78.64156574 20.42301282 84.29608666 21.76940111 90 23 C89.71040663 24.93781097 89.41818419 26.87522905 89.125 28.8125 C88.96257812 29.89144531 88.80015625 30.97039062 88.6328125 32.08203125 C88.29205389 34.1917898 87.93673951 36.30056405 87.49658203 38.3918457 C85.90634861 46.13798271 85.63316765 53.66846605 85.625 61.5625 C85.58826172 63.43711914 85.58826172 63.43711914 85.55078125 65.34960938 C85.52220989 74.41149252 87.04098251 81.13875698 91.75 88.875 C94.01083854 91.0102364 95.21668673 91.4738916 98.046875 92.50390625 C100.65302366 93.78038723 101.75589106 94.38503871 102.83886719 97.11328125 C103.24670118 99.78045268 103.41768554 102.36564313 103.5 105.0625 C103.55784668 106.00246826 103.61569336 106.94243652 103.67529297 107.91088867 C104.03655223 114.26037699 104.26796705 120.64322598 104 127 C94.72119227 129.83357833 85.45703468 132.49604921 75.97485352 134.56738281 C71.62018722 135.53855576 67.45753136 136.81437701 63.23730469 138.25927734 C59.74050078 139.41699265 56.19174569 140.33537885 52.625 141.25 C51.82610352 141.45761963 51.02720703 141.66523926 50.20410156 141.87915039 C48.43558179 142.33830459 46.6666831 142.79600115 44.89746094 143.25244141 C41.78767123 144.05478183 38.67891976 144.86105956 35.5703125 145.66796875 C32.14961654 146.55586781 28.72873252 147.44299709 25.30712891 148.32739258 C19.62257085 149.79703721 13.94104838 151.27668028 8.265625 152.78125 C7.20891602 153.0604126 6.15220703 153.3395752 5.06347656 153.62719727 C3.06462487 154.15590214 1.06653731 154.68750688 -0.93066406 155.22241211 C-1.81979492 155.45710205 -2.70892578 155.69179199 -3.625 155.93359375 C-4.78902344 156.2438147 -4.78902344 156.2438147 -5.9765625 156.56030273 C-8 157 -8 157 -11 157 C-13.62692356 140.38033027 -15.5684523 123.76417705 -17 107 C-6.72350652 105.21443551 3.55996565 104.4665731 13.95532227 103.75488281 C20.25634989 103.31276675 26.49677056 102.76513375 32.75 101.875 C40.21566906 100.84967206 47.47835965 100.80547482 55 101 C54.72285156 100.13117188 54.44570312 99.26234375 54.16015625 98.3671875 C53.61681641 96.63855469 53.61681641 96.63855469 53.0625 94.875 C52.70285156 93.73804688 52.34320313 92.60109375 51.97265625 91.4296875 C50.31703127 85.59178095 49.84066524 80.11113962 49.875 74.0625 C49.87113281 73.38509766 49.86726563 72.70769531 49.86328125 72.00976562 C49.8718082 67.56296111 50.28162059 63.3729921 51 59 C50.32445068 58.96769287 49.64890137 58.93538574 48.95288086 58.90209961 C39.94470884 58.32551045 31.3409592 56.52979313 22.5625 54.5625 C19.73159526 53.93358933 16.89963619 53.30975799 14.06640625 52.69140625 C13.04566513 52.4683934 13.04566513 52.4683934 12.00430298 52.24087524 C5.70979093 50.8906529 -0.62302996 49.8805079 -7 49 C-6.24609936 40.58144287 -6.24609936 40.58144287 -5.02514648 37.69677734 C-3.9488605 34.86547108 -3.52515703 32.39932742 -3.18359375 29.39453125 C-3.05919922 28.32783203 -2.93480469 27.26113281 -2.80664062 26.16210938 C-2.68482422 25.05673828 -2.56300781 23.95136719 -2.4375 22.8125 C-2.31181641 21.72646484 -2.18613281 20.64042969 -2.05664062 19.52148438 C-1.31084985 13.02021922 -0.63074088 6.5133837 0 0 Z " fill="#D3AF38" transform="translate(83,182)"/>
<path d="M0 0 C3.33311176 -0.3225592 5.85991521 0.20709962 8.9609375 1.3125 C14.47056885 3.19864509 20.06010166 4.69652059 25.6875 6.1875 C26.80527832 6.48648193 27.92305664 6.78546387 29.07470703 7.09350586 C35.26930959 8.74879051 41.46808911 10.38804546 47.66796875 12.0234375 C61.85854793 15.77404194 75.98176278 19.64610044 90 24 C89.69127671 26.60466543 89.37818277 29.20867691 89.0625 31.8125 C88.97548828 32.55048828 88.88847656 33.28847656 88.79882812 34.04882812 C88.41783454 37.16733121 87.99630626 40.01108122 87 43 C84.97701906 58.28474487 84.26201478 72.99524002 91.9765625 86.640625 C94.02433055 89.02836998 95.44105826 89.8197171 98.17578125 91.24609375 C101.79134893 93.39663274 101.79134893 93.39663274 102.66308594 95.91748047 C102.82911437 98.26144235 102.74724181 100.47000211 102.5625 102.8125 C102.52898437 103.64112549 102.49546875 104.46975098 102.4609375 105.32348633 C102.34750154 107.88630784 102.17745596 110.4408983 102 113 C101.91280632 114.60142526 101.82807056 116.20298672 101.74609375 117.8046875 C101.54400291 121.54031845 101.28811782 125.26990316 101 129 C94.50200322 131.32156791 87.98724526 133.02883683 81.25 134.5 C79.29421718 134.93465447 77.33848768 135.36954896 75.3828125 135.8046875 C73.98530762 136.1135791 73.98530762 136.1135791 72.55957031 136.42871094 C69.40778374 137.13218104 66.26648893 137.87702645 63.125 138.625 C57.02812611 140.04492984 50.88891531 141.16098396 44.7265625 142.25390625 C41.07555682 142.9848728 37.57576448 143.96852948 34 145 C31.71336147 145.48279375 29.42126588 145.94029488 27.125 146.375 C20.63423632 147.63440191 14.21780647 149.095555 7.81103516 150.72998047 C3.76363749 151.72603872 0.15319964 152.07227103 -4 152 C-4.57769728 147.07536112 -5.14699844 142.14984527 -5.70898438 137.22338867 C-5.90076428 135.55223275 -6.09472256 133.88132518 -6.29101562 132.21069336 C-7.35764671 123.11984015 -8.3687228 114.17326006 -8 105 C5.74484912 103.25033681 19.47401349 101.68250733 33.29296875 100.64697266 C34.23269531 100.57526855 35.17242187 100.50356445 36.140625 100.4296875 C36.96079102 100.37022949 37.78095703 100.31077148 38.62597656 100.24951172 C41.12795178 99.98655217 43.53637167 99.5024522 46 99 C47.60303627 98.93628632 49.20837672 98.91355786 50.8125 98.9375 C51.60269531 98.94652344 52.39289063 98.95554687 53.20703125 98.96484375 C53.79871094 98.97644531 54.39039063 98.98804688 55 99 C54.52511102 97.01980257 54.04497141 95.04086365 53.5625 93.0625 C53.29566406 91.96035156 53.02882813 90.85820312 52.75390625 89.72265625 C52.27004275 87.10578746 52.27004275 87.10578746 51 86 C50.9004557 84.26661436 50.86919654 82.52920917 50.8671875 80.79296875 C50.86589844 79.73142578 50.86460937 78.66988281 50.86328125 77.57617188 C50.86714844 76.45791016 50.87101562 75.33964844 50.875 74.1875 C50.87113281 73.08083984 50.86726563 71.97417969 50.86328125 70.83398438 C50.86457031 69.76857422 50.86585938 68.70316406 50.8671875 67.60546875 C50.86831543 66.62731201 50.86944336 65.64915527 50.87060547 64.64135742 C50.98681045 62.26924108 51.32413397 60.26754059 52 58 C50.9584375 58.05800781 49.916875 58.11601562 48.84375 58.17578125 C42.57184209 58.17164774 36.58495938 56.57235002 30.5 55.1875 C27.99383388 54.63255742 25.4873246 54.07916223 22.98046875 53.52734375 C21.77825684 53.26163574 20.57604492 52.99592773 19.33740234 52.72216797 C15.17525975 51.82153755 11.00261163 51.00833947 6.8125 50.25 C1.50750376 49.28700928 -3.74808232 48.21919518 -9 47 C-9.12234014 41.51916177 -8.76087668 36.39794099 -7.75 31 C-7.61795166 30.27449951 -7.48590332 29.54899902 -7.34985352 28.80151367 C-5.52067516 19.05958568 -3.23974084 9.37365017 0 0 Z " fill="#D3AF38" transform="translate(410,180)"/>
<path d="M0 0 C5.09882455 1.5280389 9.65665659 3.71036856 14.375 6.125 C15.11105469 6.49753906 15.84710938 6.87007812 16.60546875 7.25390625 C18.40550358 8.1656122 20.20301402 9.08229932 22 10 C22 10.66 22 11.32 22 12 C22.77537109 12.14308594 22.77537109 12.14308594 23.56640625 12.2890625 C26.88639736 13.25894754 29.8683343 14.80969315 32.9375 16.375 C33.54529297 16.67921875 34.15308594 16.9834375 34.77929688 17.296875 C36.52866565 18.18005147 38.26464981 19.08958719 40 20 C40.96164062 20.50015625 41.92328125 21.0003125 42.9140625 21.515625 C43.60242188 22.00546875 44.29078125 22.4953125 45 23 C45.6315174 27.87170566 44.81642003 32.18600757 43.99365234 37.00463867 C42.97647694 43.55517718 42.6789541 49.93022391 42.6640625 56.55078125 C42.65149414 58.29107605 42.65149414 58.29107605 42.63867188 60.06652832 C42.61919436 63.81532539 42.61909035 67.56366077 42.625 71.3125 C42.62554382 72.60376801 42.62608765 73.89503601 42.62664795 75.22543335 C42.668365 96.82969127 43.81823927 117.98070781 46.65447998 139.3883667 C47.02952756 142.22318575 47.39631224 145.05900507 47.76220703 147.89501953 C48.80951207 155.98664055 49.86683225 164.07669853 50.98095703 172.15942383 C51.10719955 173.07545883 51.23344208 173.99149384 51.36351013 174.93528748 C51.59851292 176.63278175 51.83522107 178.33004133 52.07411194 180.0269928 C52.85783857 185.67281919 53.4677705 191.32509303 54 197 C46.67871959 199.6939076 39.25636273 201.30831123 31.61352539 202.78979492 C29.54122686 203.19162498 27.47074277 203.60194165 25.40039062 204.01367188 C15.32898915 206 15.32898915 206 13 206 C12.99668985 205.30738854 12.99337971 204.61477709 12.98996925 203.90117741 C12.90863771 187.02394938 12.81651222 170.14681796 12.71247292 153.26971531 C12.6624181 145.10797041 12.61597454 136.9462352 12.578125 128.78442383 C12.54511401 121.66798812 12.50523291 114.55162917 12.45720994 107.43527836 C12.4320352 103.66959453 12.41022764 99.90396103 12.39665604 96.13821602 C12.38375328 92.58824265 12.3616119 89.0384427 12.33261681 85.48856544 C12.31933255 83.57591737 12.31563548 81.6632101 12.31230164 79.7505188 C12.22479679 70.68376119 12.06269603 62.21986089 6 55 C3.31640787 52.99154796 3.31640787 52.99154796 0.24609375 51.421875 C-0.85541016 50.81859375 -1.95691406 50.2153125 -3.09179688 49.59375 C-4.80979492 48.68109375 -4.80979492 48.68109375 -6.5625 47.75 C-8.83497969 46.51625892 -11.10713051 45.28191184 -13.37890625 44.046875 C-14.3851001 43.50901367 -15.39129395 42.97115234 -16.42797852 42.41699219 C-19 41 -19 41 -22 39 C-20.63938137 35.85779785 -18.77986284 33.38192881 -16.62329102 30.73706055 C-9.06976674 21.44744967 -3.86182735 11.35831573 0 0 Z " fill="#D3AF39" transform="translate(347,178)"/>
<path d="M0 0 C5.91693327 0.53349398 10.62547246 2.97961823 15.875 5.5625 C16.80103027 6.01069092 17.72706055 6.45888184 18.68115234 6.9206543 C25.00375905 9.99046774 31.29352111 13.12607744 37.56787109 16.29321289 C42.97779129 19.016464 48.45820489 21.557853 54 24 C53.93832559 54.49799628 44.95078413 81.36760319 33 109 C29.10045485 108.35721783 25.75343178 107.18004219 22.125 105.625 C21.08085938 105.18027344 20.03671875 104.73554688 18.9609375 104.27734375 C17.49527344 103.64505859 17.49527344 103.64505859 16 103 C15.22914062 102.67128906 14.45828125 102.34257812 13.6640625 102.00390625 C12.10762045 101.34003607 10.55346228 100.67081326 9 100 C9.144375 99.24460937 9.28875 98.48921875 9.4375 97.7109375 C10.74416232 89.96170402 11.19276366 82.47443718 11.1875 74.625 C11.18814453 73.69864746 11.18878906 72.77229492 11.18945312 71.81787109 C11.1470907 66.46191269 10.77574077 61.29986091 10 56 C9.40316406 55.85304687 8.80632813 55.70609375 8.19140625 55.5546875 C-0.73456916 53.2469316 -9.34022941 50.13700951 -18 47 C-15.66744209 38.3385884 -12.36561 30.10806038 -9 21.8125 C-8.46055324 20.4721598 -7.92148845 19.1316658 -7.3828125 17.79101562 C-4.98340852 11.83303739 -2.54456576 5.89744398 0 0 Z " fill="#D3AF38" transform="translate(18,154)"/>
<path d="M0 0 C0.6875 1.75 0.6875 1.75 1 4 C0.00692179 5.33849671 -0.99357052 6.67151309 -2 8 C-1.938125 9.2065625 -1.938125 9.2065625 -1.875 10.4375 C-2 13 -2 13 -4.375 15.75 C-7 18 -7 18 -9 19 C-9.66 18.34 -10.32 17.68 -11 17 C-10.54109375 16.35933594 -10.0821875 15.71867188 -9.609375 15.05859375 C-6.1323166 10.15711017 -2.86988604 5.28059031 0 0 Z " fill="#D5B344" transform="translate(281,164)"/>
<path d="M0 0 C0.66 0.33 1.32 0.66 2 1 C1.67 2.32 1.34 3.64 1 5 C2.65 5 4.3 5 6 5 C6.28875 5.639375 6.5775 6.27875 6.875 6.9375 C7.82823451 9.15206079 7.82823451 9.15206079 10 10 C9.67 10.66 9.34 11.32 9 12 C5.04 9.69 1.08 7.38 -3 5 C-1 1 -1 1 0 0 Z " fill="#D7B74F" transform="translate(328,212)"/>
<path d="M0 0 C-0.33 0.99 -0.66 1.98 -1 3 C-0.01 2.67 0.98 2.34 2 2 C4.33299825 1.96045766 6.66708189 1.95598268 9 2 C9 2.33 9 2.66 9 3 C6.93939936 3.36505516 4.87640368 3.71660715 2.8125 4.0625 C1.08966797 4.35833984 1.08966797 4.35833984 -0.66796875 4.66015625 C-3.81633387 4.98126735 -5.9890409 4.90328773 -9 4 C-10.8125 2.4375 -10.8125 2.4375 -12 1 C-7.9472484 0.01751476 -4.16138263 -0.08159574 0 0 Z " fill="#D6B448" transform="translate(477,313)"/>
<path d="M0 0 C1.65 0.33 3.3 0.66 5 1 C4.80664062 1.64066406 4.61328125 2.28132812 4.4140625 2.94140625 C2.9059252 7.95110985 1.42282214 12.96539857 0 18 C-0.33 18 -0.66 18 -1 18 C-0.505 9.09 -0.505 9.09 0 0 Z " fill="#DABC59" transform="translate(83,182)"/>
<path d="M0 0 C2.475 0.99 2.475 0.99 5 2 C5 2.99 5 3.98 5 5 C0.77142857 9 0.77142857 9 -3 9 C-2.01 6.03 -1.02 3.06 0 0 Z " fill="#D5B548" transform="translate(209,142)"/>
<path d="M0 0 C0 0.33 0 0.66 0 1 C-1.98 1 -3.96 1 -6 1 C-5.690625 2.175625 -5.690625 2.175625 -5.375 3.375 C-5.25125 4.24125 -5.1275 5.1075 -5 6 C-5.66 6.66 -6.32 7.32 -7 8 C-7.33 7.67 -7.66 7.34 -8 7 C-8.33 8.65 -8.66 10.3 -9 12 C-9.33 12 -9.66 12 -10 12 C-10.33 8.37 -10.66 4.74 -11 1 C-7.1273408 0.0318352 -3.96388638 -0.07622858 0 0 Z " fill="#DABD5C" transform="translate(77,288)"/>
<path d="M0 0 C-0.66 4.29 -1.32 8.58 -2 13 C-2.33 13 -2.66 13 -3 13 C-3.07347656 11.82630859 -3.07347656 11.82630859 -3.1484375 10.62890625 C-3.22320312 9.61699219 -3.29796875 8.60507813 -3.375 7.5625 C-3.44460937 6.55316406 -3.51421875 5.54382813 -3.5859375 4.50390625 C-3.72257813 3.67761719 -3.85921875 2.85132813 -4 2 C-4.66 1.67 -5.32 1.34 -6 1 C-4 0 -4 0 0 0 Z " fill="#D7B74B" transform="translate(173,205)"/>
<path d="M0 0 C1.98 0.66 3.96 1.32 6 2 C5.34 2.66 4.68 3.32 4 4 C3.67 4 3.34 4 3 4 C2.01 4.33 1.02 4.66 0 5 C-0.33 7.31 -0.66 9.62 -1 12 C-1.99 12 -2.98 12 -4 12 C-3.52309796 10.37433394 -3.04340334 8.74948689 -2.5625 7.125 C-2.29566406 6.22007812 -2.02882813 5.31515625 -1.75390625 4.3828125 C-1 2 -1 2 0 0 Z " fill="#D6BA52" transform="translate(347,178)"/>
<path d="M0 0 C3.11223313 4.14964417 3.52003578 6.00837213 4 11 C2.35 10.67 0.7 10.34 -1 10 C-0.67 6.7 -0.34 3.4 0 0 Z " fill="#D6B647" transform="translate(28,244)"/>
<path d="M0 0 C2.97 0 5.94 0 9 0 C9 1.98 9 3.96 9 6 C5.9168649 4.80100302 2.93720508 3.52299523 0 2 C0 1.34 0 0.68 0 0 Z " fill="#D7B444" transform="translate(220,201)"/>
<path d="M0 0 C0.99 0.33 1.98 0.66 3 1 C2.67 1.66 2.34 2.32 2 3 C3.65 3.33 5.3 3.66 7 4 C4.24075815 5.80411967 3.11027897 6.0127245 -0.25 5.625 C-1.1575 5.41875 -2.065 5.2125 -3 5 C-2.01 3.35 -1.02 1.7 0 0 Z " fill="#D7B549" transform="translate(211,297)"/>
<path d="M0 0 C0.99 0.33 1.98 0.66 3 1 C1.87548273 3.9719385 0.77706209 6.33440687 -1 9 C-1.66 9 -2.32 9 -3 9 C-2.01 6.03 -1.02 3.06 0 0 Z " fill="#D7B74B" transform="translate(203,156)"/>
<path d="M0 0 C0.66 0 1.32 0 2 0 C3.06775224 1.96466413 4.06553465 3.96855359 5 6 C4.67 6.66 4.34 7.32 4 8 C3.34 8 2.68 8 2 8 C1.67 6.68 1.34 5.36 1 4 C0.01 4 -0.98 4 -2 4 C-2 3.34 -2 2.68 -2 2 C-1.34 2 -0.68 2 0 2 C0 1.34 0 0.68 0 0 Z " fill="#D4B646" transform="translate(315,260)"/>
<path d="M0 0 C-0.99 0.99 -1.98 1.98 -3 3 C-6.875 1.25 -6.875 1.25 -8 -1 C-4.59745511 -2.2151946 -3.06748874 -1.86240388 0 0 Z " fill="#FCF9F1" transform="translate(270,183)"/>
<path d="M0 0 C1.670625 0.061875 1.670625 0.061875 3.375 0.125 C3.045 1.115 2.715 2.105 2.375 3.125 C-0.265 2.795 -2.905 2.465 -5.625 2.125 C-3.625 0.125 -3.625 0.125 0 0 Z " fill="#D9B54A" transform="translate(123.625,236.875)"/>
<path d="M0 0 C1.98 0.66 3.96 1.32 6 2 C6.33 3.65 6.66 5.3 7 7 C3.63983107 5.87994369 2.30935087 4.62788203 0 2 C0 1.34 0 0.68 0 0 Z " fill="#F9F5EB" transform="translate(22,208)"/>
<path d="M0 0 C0.33 0 0.66 0 1 0 C1.25 3.25 1.25 3.25 1 7 C-0.32 8.32 -1.64 9.64 -3 11 C-2.01 7.37 -1.02 3.74 0 0 Z " fill="#DBBF5E" transform="translate(409,184)"/>
<path d="M0 0 C1.32 0.33 2.64 0.66 4 1 C3.34 1.66 2.68 2.32 2 3 C2.33 3.66 2.66 4.32 3 5 C1.35 5.33 -0.3 5.66 -2 6 C-1.34 4.02 -0.68 2.04 0 0 Z " fill="#D8B951" transform="translate(18,154)"/>
<path d="M0 0 C1.77706209 2.66559313 2.87548273 5.0280615 4 8 C2.68 7.67 1.36 7.34 0 7 C-0.38133299 5.0085944 -0.71325582 3.00720923 -1 1 C-0.67 0.67 -0.34 0.34 0 0 Z " fill="#D6B74B" transform="translate(169,261)"/>
<path d="M0 0 C0 0.33 0 0.66 0 1 C-3.61973402 2.31626692 -6.09567131 3 -10 3 C-10 2.34 -10 1.68 -10 1 C-6.52674819 -0.1577506 -3.63932552 -0.06866652 0 0 Z " fill="#D9BA51" transform="translate(210,259)"/>
<path d="M0 0 C1.00000429 4.00001715 0.80688405 6.05523353 0 10 C-0.99 10 -1.98 10 -3 10 C-2.01 6.7 -1.02 3.4 0 0 Z " fill="#D9BC58" transform="translate(3,191)"/>
<path d="M0 0 C1.98 0.495 1.98 0.495 4 1 C3.67 1.99 3.34 2.98 3 4 C2.34 4 1.68 4 1 4 C0.67 4.66 0.34 5.32 0 6 C-1.125 2.25 -1.125 2.25 0 0 Z " fill="#D7B647" transform="translate(9,176)"/>
<path d="M0 0 C0.99 0.33 1.98 0.66 3 1 C3 2.98 3 4.96 3 7 C2.01 7 1.02 7 0 7 C0 4.69 0 2.38 0 0 Z " fill="#DCC160" transform="translate(195,300)"/>
</svg>
