<?xml version="1.0" encoding="UTF-8"?>
<svg version="1.1" xmlns="http://www.w3.org/2000/svg" width="192" height="192">
<path d="M0 0 C63.36 0 126.72 0 192 0 C192 63.36 192 126.72 192 192 C128.64 192 65.28 192 0 192 C0 128.64 0 65.28 0 0 Z " fill="#FEFDFC" transform="translate(0,0)"/>
<path d="M0 0 C63.36 0 126.72 0 192 0 C192 12.87 192 25.74 192 39 C128.64 39 65.28 39 0 39 C0 26.13 0 13.26 0 0 Z " fill="#000000" transform="translate(0,153)"/>
<path d="M0 0 C63.36 0 126.72 0 192 0 C192 12.54 192 25.08 192 38 C128.64 38 65.28 38 0 38 C0 25.46 0 12.92 0 0 Z " fill="#000000" transform="translate(0,0)"/>
<path d="M0 0 C7.92144406 2.75835999 14.33068197 8.95272744 20 15 C23.10000819 13.93521458 23.97462191 13.04202519 25.703125 10.1796875 C26.21359375 9.08914062 26.7240625 7.99859375 27.25 6.875 C27.77078125 5.77929688 28.2915625 4.68359375 28.828125 3.5546875 C29.21484375 2.71164063 29.6015625 1.86859375 30 1 C33.82990706 1.64743667 36.5283898 3.45311237 39.75 5.5625 C40.73484375 6.20316406 41.7196875 6.84382813 42.734375 7.50390625 C43.85585937 8.24447266 43.85585937 8.24447266 45 9 C44.02405318 15.68058833 40.14475152 20.05022589 35.25 24.5 C33 26 33 26 31 26 C32.43660741 28.563004 33.87425419 31.1254156 35.3125 33.6875 C35.91868164 34.7693457 35.91868164 34.7693457 36.53710938 35.87304688 C36.93349609 36.57880859 37.32988281 37.28457031 37.73828125 38.01171875 C38.1245166 38.70056152 38.51075195 39.3894043 38.90869141 40.09912109 C39.82854459 41.70135306 40.80471313 43.27106105 41.79296875 44.83203125 C43 47 43 47 43 50 C42.33693848 50.15557373 41.67387695 50.31114746 40.99072266 50.47143555 C23.19029635 54.64806978 23.19029635 54.64806978 5.57275391 59.52612305 C1.7794998 60.63283168 -0.95984112 61 -5 61 C-5 55.72 -5 50.44 -5 45 C4.30606453 42.65439171 13.36598935 40.41615597 23 40 C16.67221007 27.71664307 5.27062872 23.50230588 -7 19 C-6.33392561 14.59041892 -4.73375271 10.73427814 -2.9375 6.6875 C-2.65583984 6.04232422 -2.37417969 5.39714844 -2.08398438 4.73242188 C-1.3937257 3.15301642 -0.69746802 1.57623507 0 0 Z " fill="#D4B03B" transform="translate(78,53)"/>
<path d="M0 0 C9.50884745 1.43166917 18.71098791 3.94252294 27.97631836 6.45922852 C29.97922787 6.99444924 31.98737313 7.50270297 34 8 C33.84015625 8.83402344 33.6803125 9.66804688 33.515625 10.52734375 C32.96402525 14.24228447 32.79546823 17.8075816 32.75 21.5625 C32.71132812 23.48255859 32.71132812 23.48255859 32.671875 25.44140625 C33.0177842 29.19287384 33.72750212 31.03803068 36 34 C36.99 34.495 36.99 34.495 38 35 C39.0317435 37.93300669 39.10790988 40.66212836 39.0625 43.75 C39.05347656 44.54921875 39.04445312 45.3484375 39.03515625 46.171875 C39.02355469 46.77515625 39.01195312 47.3784375 39 48 C37.76507813 48.30292969 36.53015625 48.60585937 35.2578125 48.91796875 C33.54671873 49.34051352 31.83579385 49.76374256 30.125 50.1875 C28.7800647 50.52044067 28.7800647 50.52044067 27.40795898 50.86010742 C20.50419513 52.58559351 13.64941053 54.45265483 6.82666016 56.4753418 C2.96112893 57.58996759 0.09857786 58 -4 58 C-4.66 52.06 -5.32 46.12 -6 40 C2.6619578 38.80798746 11.28107764 37.68881299 20 37 C19.67 36.01 19.34 35.02 19 34 C18.931009 31.93854893 18.91532273 29.87498599 18.9375 27.8125 C18.94652344 26.72582031 18.95554687 25.63914062 18.96484375 24.51953125 C18.97644531 23.68808594 18.98804687 22.85664062 19 22 C17.948125 21.896875 16.89625 21.79375 15.8125 21.6875 C9.77734301 20.94805734 3.90153295 19.43040204 -2 18 C-1.48758893 11.97099313 -0.930215 5.97995357 0 0 Z " fill="#D4B03B" transform="translate(31,68)"/>
<path d="M0 0 C6.1762502 0.87496878 11.9449085 1.79856822 17.7109375 4.203125 C22.97152578 6.03445607 28.54474197 6.91967503 34 8 C33.97381592 8.64026123 33.94763184 9.28052246 33.9206543 9.94018555 C33.81638719 12.85570502 33.75158247 15.77083198 33.6875 18.6875 C33.6246582 20.19860352 33.6246582 20.19860352 33.56054688 21.74023438 C33.31092365 27.82128175 33.31092365 27.82128175 36.5 32.75 C37.325 33.4925 38.15 34.235 39 35 C39.48828125 38.55078125 39.48828125 38.55078125 39.3125 42.3125 C39.26738281 43.56675781 39.22226563 44.82101563 39.17578125 46.11328125 C39.08876953 47.54220703 39.08876953 47.54220703 39 49 C36.66710448 50.16644776 34.77607937 50.37967391 32.1875 50.75 C25.12493614 51.86695049 18.22919375 53.57200502 11.29956055 55.32324219 C10.42855713 55.53883789 9.55755371 55.75443359 8.66015625 55.9765625 C7.88293213 56.17330566 7.10570801 56.37004883 6.30493164 56.57275391 C3.82376379 57.03266745 1.5178458 57.0729165 -1 57 C-1.89647163 50.94881647 -2.09115728 45.11112657 -2 39 C1.08296707 38.66322033 4.166427 38.33118201 7.25 38 C8.12269531 37.90460938 8.99539062 37.80921875 9.89453125 37.7109375 C10.73886719 37.62070313 11.58320313 37.53046875 12.453125 37.4375 C13.22817383 37.35371094 14.00322266 37.26992187 14.80175781 37.18359375 C16.86157323 37.01156119 18.93301312 37 21 37 C20.75443359 36.18789062 20.75443359 36.18789062 20.50390625 35.359375 C19.91409413 32.59777407 19.90390692 30.07181861 19.9375 27.25 C19.94652344 26.26515625 19.95554688 25.2803125 19.96484375 24.265625 C19.97644531 23.51796875 19.98804688 22.7703125 20 22 C19.16597656 21.87882812 18.33195312 21.75765625 17.47265625 21.6328125 C10.90884576 20.65538368 4.45697784 19.53216423 -2 18 C-2.20190089 11.64012196 -1.6277833 6.14778871 0 0 Z " fill="#D4B03B" transform="translate(153,67)"/>
<path d="M0 0 C1.66687964 0.66613399 3.3334886 1.3329453 5 2 C6.5312854 2.54793213 6.5312854 2.54793213 8.09350586 3.10693359 C11.71914593 4.71999729 14.20955038 6.1574276 17 9 C18.28006234 14.13515743 18.09701046 18.89302567 17.73388672 24.1444397 C17.44630673 28.30671972 17.348602 32.47479627 17.22265625 36.64453125 C17.19229279 37.4599791 17.16192932 38.27542694 17.13064575 39.11558533 C16.86246501 47.24581284 17.87591342 54.94447474 19.34375 62.92578125 C20.09184209 66.99840239 20.11214189 70.86476798 20 75 C15.05 75.99 10.1 76.98 5 78 C4.99589111 76.39036377 4.99178223 74.78072754 4.98754883 73.12231445 C4.96577369 67.14900715 4.91149918 61.17636006 4.84741211 55.20336914 C4.82421827 52.61847258 4.80983319 50.03348133 4.80444336 47.44848633 C4.79516459 43.73198337 4.75419291 40.01697271 4.70703125 36.30078125 C4.7109639 35.14540359 4.71489655 33.99002594 4.71894836 32.79963684 C4.67182791 26.33303283 4.67182791 26.33303283 1.58203125 20.81640625 C-1.53124796 18.61323313 -1.53124796 18.61323313 -4.8125 16.6875 C-5.864375 16.130625 -6.91625 15.57375 -8 15 C-7.38511719 14.00419922 -7.38511719 14.00419922 -6.7578125 12.98828125 C-6.21898438 12.10527344 -5.68015625 11.22226563 -5.125 10.3125 C-4.59132813 9.44238281 -4.05765625 8.57226562 -3.5078125 7.67578125 C-2.09359186 5.16608918 -1.00105211 2.69700931 0 0 Z " fill="#D3B03B" transform="translate(130,66)"/>
<path d="M0 0 C4.36778087 1.67926332 8.58165008 3.63305917 12.8125 5.625 C13.50537109 5.94984375 14.19824219 6.2746875 14.91210938 6.609375 C16.60866023 7.40499885 18.30441165 8.20232699 20 9 C19.3609129 20.19504302 16.69264277 30.44959209 13 41 C9.08393425 40.46599103 6.60661066 39.80330533 3 38 C3.33 32.39 3.66 26.78 4 21 C2.55625 20.690625 1.1125 20.38125 -0.375 20.0625 C-2.78923686 19.54516353 -4.78970467 19.10514766 -7 18 C-5.26375242 11.5811453 -3.14819255 5.86215164 0 0 Z " fill="#D3B03A" transform="translate(7,57)"/>
<path d="M0 0 C1.66666667 0 3.33333333 0 5 0 C4.34 4.62 3.68 9.24 3 14 C2.01 14 1.02 14 0 14 C-0.99 14.66 -1.98 15.32 -3 16 C-2.01 10.72 -1.02 5.44 0 0 Z " fill="#F9F4E5" transform="translate(26,72)"/>
<path d="M0 0 C0.66 0.33 1.32 0.66 2 1 C2.29535506 2.96903371 2.58172087 4.94083576 2.78125 6.921875 C3.03359311 9.31913458 3.48512606 11.64629057 4 14 C1.36 13.34 -1.28 12.68 -4 12 C-3.33501617 7.61110675 -1.81242323 4.0188515 0 0 Z " fill="#D7B74B" transform="translate(75,60)"/>
<path d="M0 0 C0.33 0 0.66 0 1 0 C1 2.64 1 5.28 1 8 C-3.455 8.495 -3.455 8.495 -8 9 C-8 8.34 -8 7.68 -8 7 C-8.66 6.67 -9.32 6.34 -10 6 C-6.94152152 5.45627049 -4.11227195 5 -1 5 C-0.67 3.35 -0.34 1.7 0 0 Z " fill="#D7B64C" transform="translate(149,133)"/>
<path d="M0 0 C0.33 0 0.66 0 1 0 C1 1.65 1 3.3 1 5 C2.32 5.33 3.64 5.66 5 6 C4.030625 6.433125 3.06125 6.86625 2.0625 7.3125 C-1.27731765 8.7014861 -1.27731765 8.7014861 -2 12 C-2.66 12 -3.32 12 -4 12 C-3.52309796 10.37433394 -3.04340334 8.74948689 -2.5625 7.125 C-2.29566406 6.22007813 -2.02882812 5.31515625 -1.75390625 4.3828125 C-1 2 -1 2 0 0 Z " fill="#D7B74D" transform="translate(6,58)"/>
<path d="M0 0 C3.87132028 0.57352893 6.08172796 2.48704352 9 5 C6.03 4.505 6.03 4.505 3 4 C2.67 4.99 2.34 5.98 2 7 C2 6.34 2 5.68 2 5 C1.01 4.67 0.02 4.34 -1 4 C-0.67 2.68 -0.34 1.36 0 0 Z " fill="#D6B448" transform="translate(108,54)"/>
<path d="M0 0 C1.875 0.25 1.875 0.25 4 1 C5.25 3.0625 5.25 3.0625 6 5 C5.34 5 4.68 5 4 5 C3.67 8.3 3.34 11.6 3 15 C2.67 15 2.34 15 2 15 C2 11.04 2 7.08 2 3 C1.01 2.67 0.02 2.34 -1 2 C-0.67 1.34 -0.34 0.68 0 0 Z " fill="#D9B853" transform="translate(9,75)"/>
<path d="M0 0 C2.31 0 4.62 0 7 0 C6.67 1.98 6.34 3.96 6 6 C4.02 5.34 2.04 4.68 0 4 C0 2.68 0 1.36 0 0 Z " fill="#D8B953" transform="translate(10,91)"/>
<path d="M0 0 C5.94 0.99 5.94 0.99 12 2 C8.75366476 4.1642235 7.75698557 4.37569856 4 4 C3.01 3.34 2.02 2.68 1 2 C0.67 2.66 0.34 3.32 0 4 C0 2.68 0 1.36 0 0 Z " fill="#D9BD58" transform="translate(153,67)"/>
<path d="M0 0 C1.09658936 3.28976808 0.79953138 4.71303767 0 8 C0.66 8 1.32 8 2 8 C1.67 8.66 1.34 9.32 1 10 C-0.65 9.01 -2.3 8.02 -4 7 C-2.68 4.69 -1.36 2.38 0 0 Z " fill="#D8B84C" transform="translate(126,74)"/>
<path d="M0 0 C1.32 0.66 2.64 1.32 4 2 C3.67 2.99 3.34 3.98 3 5 C0.9375 5.6875 0.9375 5.6875 -1 6 C-0.67 4.02 -0.34 2.04 0 0 Z " fill="#D6B84A" transform="translate(130,66)"/>
</svg>
