<?xml version="1.0" encoding="UTF-8"?>
<svg version="1.1" xmlns="http://www.w3.org/2000/svg" width="192" height="192">
<path d="M0 0 C1.73438112 -0.00389404 3.46876129 -0.00823016 5.20314026 -0.01298523 C8.82662049 -0.02041808 12.45000323 -0.02017732 16.07348633 -0.01489258 C20.69429295 -0.00909827 25.3146987 -0.02604229 29.93543911 -0.04923725 C33.5138834 -0.06403744 37.0922325 -0.06483784 40.67070198 -0.06172752 C42.37338111 -0.06223746 44.07606604 -0.067413 45.77871513 -0.07753944 C58.16902719 -0.14220445 69.50456243 0.0115328 79.00390625 9.01953125 C88.36850101 18.85235575 87.65307005 30.19327937 87.625 42.94921875 C87.62956861 44.77088616 87.63487619 46.59255186 87.6408844 48.41421509 C87.64978952 52.22185288 87.64742255 56.02928065 87.63745117 59.83691406 C87.62597168 64.6909098 87.64617061 69.54417691 87.67536831 74.39807701 C87.69380915 78.15758794 87.6934221 81.91692685 87.68773079 85.67647171 C87.6875785 87.46485032 87.69354551 89.25324129 87.70602226 91.04157639 C87.78228498 103.76405764 87.37570221 114.95498353 78.0390625 124.6484375 C68.06104113 133.57169974 55.1794379 132.61350473 42.63671875 132.6015625 C40.9271535 132.60545704 39.2175892 132.60979325 37.50802612 132.61454773 C33.93582006 132.62198058 30.36371287 132.62174013 26.79150391 132.61645508 C22.24029542 132.61066525 17.68949453 132.62759396 13.13835335 132.65079975 C9.61048055 132.66561531 6.08270416 132.6663982 2.55480576 132.66329002 C0.8780728 132.66379934 -0.79866612 132.66896291 -2.4753685 132.67910194 C-11.63575297 132.72770424 -20.07987747 132.45257494 -28.80859375 129.30078125 C-29.90171875 128.90890625 -30.99484375 128.51703125 -32.12109375 128.11328125 C-39.26400121 123.29597157 -42.86057763 115.48925569 -44.80859375 107.30078125 C-45.5217512 101.02874873 -45.34865415 94.68860532 -45.3046875 88.38671875 C-45.30484279 86.56311994 -45.30633667 84.7395208 -45.30909729 82.91592407 C-45.31047485 79.11176798 -45.29802923 75.30799187 -45.27514648 71.50390625 C-45.24672326 66.64760976 -45.24951887 61.79194167 -45.2622366 56.93559837 C-45.26921647 53.17616481 -45.26137887 49.41687452 -45.24897957 45.65745926 C-45.24449034 43.8674436 -45.24410595 42.07741243 -45.24804497 40.28739548 C-45.27326741 18.75047246 -45.27326741 18.75047246 -38.4453125 9.93359375 C-27.82779098 -0.65858762 -13.90479582 -0.01303966 0 0 Z " fill="#140801" transform="translate(74.80859375,29.69921875)"/>
<path d="M0 0 C4.00334177 3.42866852 6.83305025 6.50555181 9.484375 11.07421875 C10.20625 11.77546875 10.928125 12.47671875 11.671875 13.19921875 C13.484375 15.07421875 13.484375 15.07421875 13.484375 18.07421875 C18.764375 19.39421875 24.044375 20.71421875 29.484375 22.07421875 C29.359375 29.88671875 29.359375 29.88671875 29.30419922 32.33520508 C29.27460932 36.13941636 29.32722946 37.83850044 31.484375 41.07421875 C31.74197779 43.76874396 31.57337553 46.3597025 31.484375 49.07421875 C13.95765744 56.07421875 13.95765744 56.07421875 6.484375 56.07421875 C5.989375 53.10421875 5.989375 53.10421875 5.484375 50.07421875 C5.154375 56.01421875 4.824375 61.95421875 4.484375 68.07421875 C-4.390625 71.07421875 -4.390625 71.07421875 -5.515625 71.07421875 C-5.845625 61.83421875 -6.175625 52.59421875 -6.515625 43.07421875 C-7.175625 46.70421875 -7.835625 50.33421875 -8.515625 54.07421875 C-10.01415273 57.57078345 -11.10273562 59.34838146 -14.5078125 61.09765625 C-23.91427597 64.45931041 -34.5558553 64.30230835 -43.94140625 61.0234375 C-45.515625 60.07421875 -45.515625 60.07421875 -46.515625 57.07421875 C-42.68366925 53.242263 -39.00526554 52.19509489 -33.9140625 50.92578125 C-29.71338678 49.87319814 -25.55247803 48.70735793 -21.390625 47.51171875 C-20.63168945 47.30168213 -19.87275391 47.09164551 -19.09082031 46.87524414 C-17.21402885 46.33514337 -15.3617447 45.71131928 -13.515625 45.07421875 C-13.020625 44.08421875 -13.020625 44.08421875 -12.515625 43.07421875 C-14.80785489 43.67631113 -17.09948989 44.28048276 -19.390625 44.88671875 C-20.07302246 45.06686523 -20.75541992 45.24701172 -21.45849609 45.43261719 C-26.13946297 46.67866962 -30.76591864 48.04098227 -35.3671875 49.55859375 C-37.515625 50.07421875 -37.515625 50.07421875 -40.05859375 50.06640625 C-43.11595681 50.0761276 -45.45762162 51.14790524 -48.26171875 52.28125 C-51.51522764 53.42589871 -54.82354093 53.97920469 -58.21875 54.546875 C-60.53825918 54.97904341 -60.53825918 54.97904341 -62.546875 56.125 C-64.80345993 57.2129963 -66.28019101 57.28206655 -68.765625 57.19921875 C-70.003125 57.15796875 -71.240625 57.11671875 -72.515625 57.07421875 C-74.81175256 47.66419597 -74.81175256 47.66419597 -74.515625 43.07421875 C-75.175625 43.07421875 -75.835625 43.07421875 -76.515625 43.07421875 C-76.185625 42.14609375 -75.855625 41.21796875 -75.515625 40.26171875 C-74.36595496 37.15392584 -74.36595496 37.15392584 -74.515625 34.07421875 C-75.175625 34.07421875 -75.835625 34.07421875 -76.515625 34.07421875 C-76.845625 35.06421875 -77.175625 36.05421875 -77.515625 37.07421875 C-79.99609375 35.9609375 -79.99609375 35.9609375 -82.515625 34.07421875 C-83.00390625 31.15625 -83.00390625 31.15625 -82.828125 27.88671875 C-82.78300781 26.80003906 -82.73789063 25.71335938 -82.69140625 24.59375 C-82.63339844 23.76230469 -82.57539062 22.93085937 -82.515625 22.07421875 C-84.825625 21.74421875 -87.135625 21.41421875 -89.515625 21.07421875 C-89.03951841 16.07509951 -87.48400281 13.09589192 -84.515625 9.07421875 C-81.11249762 10.13296949 -78.50209269 11.08324029 -75.515625 13.07421875 C-74.525625 13.07421875 -73.535625 13.07421875 -72.515625 13.07421875 C-72.185625 12.41421875 -71.855625 11.75421875 -71.515625 11.07421875 C-65.13487689 2.23933675 -57.44600174 -1.77173751 -47.515625 -5.92578125 C-46.7215625 -6.25835937 -45.9275 -6.5909375 -45.109375 -6.93359375 C-29.96256974 -12.93405891 -12.87872438 -9.85902348 0 0 Z " fill="#2A1200" transform="translate(126.515625,57.92578125)"/>
<path d="M0 0 C4.9375 6.21169355 4.9375 6.21169355 4.9375 10.4375 C4.174375 10.1075 3.41125 9.7775 2.625 9.4375 C-0.05319135 8.26313314 -0.05319135 8.26313314 -3.0625 8.4375 C-4.3825 10.7475 -5.7025 13.0575 -7.0625 15.4375 C-6.40894531 15.78554687 -5.75539062 16.13359375 -5.08203125 16.4921875 C-3.0625 18.4375 -3.0625 18.4375 -2.63671875 21.7578125 C-2.67410156 23.01335937 -2.71148437 24.26890625 -2.75 25.5625 C-2.78673828 27.45355469 -2.78673828 27.45355469 -2.82421875 29.3828125 C-3.0625 32.4375 -3.0625 32.4375 -4.0625 33.4375 C-4.35928881 35.16240129 -4.62485954 36.8927189 -4.875 38.625 C-5.75747608 43.45045432 -6.49346931 46.86846931 -10.0625 50.4375 C-18.72108549 54.88563608 -30.20197788 54.88567067 -39.375 52.125 C-41.48828125 51.38671875 -41.48828125 51.38671875 -43.0625 50.4375 C-43.3925 49.4475 -43.7225 48.4575 -44.0625 47.4375 C-40.23054425 43.60554425 -36.55214054 42.55837614 -31.4609375 41.2890625 C-27.26026178 40.23647939 -23.09935303 39.07063918 -18.9375 37.875 C-17.79909668 37.55994507 -17.79909668 37.55994507 -16.63769531 37.23852539 C-14.76090385 36.69842462 -12.9086197 36.07460053 -11.0625 35.4375 C-10.5675 34.4475 -10.5675 34.4475 -10.0625 33.4375 C-12.35472989 34.03959238 -14.64636489 34.64376401 -16.9375 35.25 C-17.61989746 35.43014648 -18.30229492 35.61029297 -19.00537109 35.79589844 C-23.68633797 37.04195087 -28.31279364 38.40426352 -32.9140625 39.921875 C-35.35235835 40.507066 -37.56336493 40.45410555 -40.0625 40.4375 C-41.0525 40.9325 -41.0525 40.9325 -42.0625 41.4375 C-42.0625 38.1375 -42.0625 34.8375 -42.0625 31.4375 C-43.5475 30.9425 -43.5475 30.9425 -45.0625 30.4375 C-47.51084389 25.54081223 -45.78849316 18.51945212 -45.0625 13.4375 C-50.3425 11.7875 -55.6225 10.1375 -61.0625 8.4375 C-57.73772936 0.67970183 -57.73772936 0.67970183 -53.0625 -1.5625 C-52.13695313 -2.14128906 -51.21140625 -2.72007813 -50.2578125 -3.31640625 C-33.50089401 -13.18721193 -15.22417903 -12.73859878 0 0 Z " fill="#381700" transform="translate(124.0625,67.5625)"/>
<path d="M0 0 C0.33 0 0.66 0 1 0 C1.33 9.9 1.66 19.8 2 30 C1.34 30 0.68 30 0 30 C-0.33 28.35 -0.66 26.7 -1 25 C-1.29390625 25.90492187 -1.29390625 25.90492187 -1.59375 26.828125 C-4.6357888 31.52638492 -11.79637423 32.61752769 -17 34 C-20.42366766 34.42500702 -23.57450586 34.32315982 -27 34 C-28.04994141 34.00193359 -28.04994141 34.00193359 -29.12109375 34.00390625 C-38.54052478 33.71008914 -48.00757138 27.95407926 -55 22 C-54.45773019 18.20411134 -52.79872437 16.52788007 -50 14 C-52.31 14 -54.62 14 -57 14 C-53.9182501 11.94550007 -51.6904243 11.25524191 -48.125 10.375 C-46.58199219 9.98441406 -46.58199219 9.98441406 -45.0078125 9.5859375 C-42.24120939 9.04698884 -39.80715804 8.88605632 -37 9 C-37 7.02 -37 5.04 -37 3 C-36.67 3 -36.34 3 -36 3 C-36 4.65 -36 6.3 -36 8 C-33.70777011 7.39790762 -31.41613511 6.79373599 -29.125 6.1875 C-28.44260254 6.00735352 -27.76020508 5.82720703 -27.05712891 5.64160156 C-22.37616203 4.39554913 -17.74970636 3.03323648 -13.1484375 1.515625 C-10.70673435 0.92961624 -8.50206842 0.91220813 -6 1 C-6.33 1.99 -6.66 2.98 -7 4 C-9.11376953 4.95141602 -9.11376953 4.95141602 -11.8828125 5.75390625 C-12.88570312 6.05103516 -13.88859375 6.34816406 -14.921875 6.65429688 C-16.50742188 7.10385742 -16.50742188 7.10385742 -18.125 7.5625 C-19.67574219 8.01786133 -19.67574219 8.01786133 -21.2578125 8.48242188 C-29.06883182 10.76893837 -29.06883182 10.76893837 -32.23339844 11.55419922 C-36.3534756 12.58344249 -36.3534756 12.58344249 -39 16 C-39 16.66 -39 17.32 -39 18 C-29.08669716 20.73470423 -15.72042296 22.25770592 -6 18 C-2.74218865 12.83207125 -1.81748395 6.95595447 -1 1 C-0.67 0.67 -0.34 0.34 0 0 Z " fill="#291000" transform="translate(120,100)"/>
<path d="M0 0 C0.51949219 0.39832031 1.03898437 0.79664062 1.57421875 1.20703125 C5.27926842 4.02177323 8.93575065 6.71385974 13 9 C15.97 4.545 15.97 4.545 19 0 C22.7364797 0.93411993 25.60899585 2.22742965 29 4 C28.58424938 8.85042388 26.58340022 10.84319505 23 14 C22.01 14.66 21.02 15.32 20 16 C21.4547356 19.87929495 23.2498811 23.4833536 25.1953125 27.1328125 C26 29 26 29 26 32 C24.90300781 32.33773437 23.80601563 32.67546875 22.67578125 33.0234375 C21.22132093 33.47385102 19.76689569 33.92437784 18.3125 34.375 C17.59126953 34.59671875 16.87003906 34.8184375 16.12695312 35.046875 C13.09011952 35.98981877 10.13087933 36.94619405 7.1875 38.15625 C4.38592494 39.23685752 1.97417585 39.13833376 -1 39 C-2.1577506 35.52674819 -2.06866652 32.63932552 -2 29 C-0.27318563 28.49193553 1.45657979 27.99389533 3.1875 27.5 C4.15042969 27.2215625 5.11335938 26.943125 6.10546875 26.65625 C8.85345876 26.03322392 11.19598416 25.87697188 14 26 C11.74987808 21.04973177 9.73354878 17.2229034 4.625 14.9375 C3.75875 14.628125 2.8925 14.31875 2 14 C-0.00751815 13.01517978 -2.00934459 12.01847486 -4 11 C-3.39301257 6.87248551 -1.96189209 3.6678852 0 0 Z " fill="#F2C927" transform="translate(87,67)"/>
<path d="M0 0 C1.37671875 -0.02126953 1.37671875 -0.02126953 2.78125 -0.04296875 C5.71110518 0.20539541 7.82838203 0.99457041 10.5 2.1875 C11.82676508 2.54608516 13.15835921 2.8893576 14.5 3.1875 C14.5 4.1775 14.5 5.1675 14.5 6.1875 C12.52 5.8575 10.54 5.5275 8.5 5.1875 C6.52 8.1575 4.54 11.1275 2.5 14.1875 C1.283125 13.259375 0.06625 12.33125 -1.1875 11.375 C-4.19717166 9.11373692 -7.21387661 7.03594441 -10.5 5.1875 C-11.82 8.4875 -13.14 11.7875 -14.5 15.1875 C-12.025 15.6825 -12.025 15.6825 -9.5 16.1875 C-8.84 16.8475 -8.18 17.5075 -7.5 18.1875 C-6.7575 18.414375 -6.015 18.64125 -5.25 18.875 C-1.38359262 20.72033079 1.17698766 23.60319574 3.5 27.1875 C3.5 28.1775 3.5 29.1675 3.5 30.1875 C-4.42 31.6725 -4.42 31.6725 -12.5 33.1875 C-12.17 36.4875 -11.84 39.7875 -11.5 43.1875 C-7.69426241 42.26887368 -4.00531786 41.36584748 -0.3125 40.0625 C2.4695597 39.19697031 4.60914345 39.01744961 7.5 39.1875 C4.28163043 40.90087661 1.01221914 42.13794241 -2.4375 43.3125 C-3.45714844 43.66570312 -4.47679688 44.01890625 -5.52734375 44.3828125 C-8.36167592 45.15005616 -10.59027773 45.25834541 -13.5 45.1875 C-14.49 45.6825 -14.49 45.6825 -15.5 46.1875 C-15.5 42.8875 -15.5 39.5875 -15.5 36.1875 C-16.49 35.8575 -17.48 35.5275 -18.5 35.1875 C-20.95063476 30.28623048 -19.37459663 23.43507977 -18.5 18.1875 C-22.13 17.1975 -25.76 16.2075 -29.5 15.1875 C-28.51 14.8575 -27.52 14.5275 -26.5 14.1875 C-26.37625 13.56875 -26.2525 12.95 -26.125 12.3125 C-25.21496454 9.21837944 -23.23673921 8.69270656 -20.5 7.1875 C-20.17 6.5275 -19.84 5.8675 -19.5 5.1875 C-17.43359375 4.5546875 -17.43359375 4.5546875 -14.9375 4.0625 C-14.11121094 3.89492187 -13.28492187 3.72734375 -12.43359375 3.5546875 C-11.79550781 3.43351562 -11.15742187 3.31234375 -10.5 3.1875 C-10.5 2.5275 -10.5 1.8675 -10.5 1.1875 C-6.95254915 0.38418233 -3.6361745 0.02553493 0 0 Z " fill="#482203" transform="translate(97.5,62.8125)"/>
<path d="M0 0 C4.92078284 0.61984154 9.58060226 1.55628506 14.375 2.875 C15.59960938 3.20242187 16.82421875 3.52984375 18.0859375 3.8671875 C19.04757813 4.24101563 20.00921875 4.61484375 21 5 C22.14459881 8.43379644 21.69537511 9.52312446 21 13 C20.75677485 15.76195671 20.81944332 18.20137153 21 21 C21.49628906 21.46792969 21.99257812 21.93585938 22.50390625 22.41796875 C24 24 24 24 24.29296875 26.48046875 C24.25816406 27.37378906 24.22335938 28.26710938 24.1875 29.1875 C24.16042969 30.08855469 24.13335937 30.98960938 24.10546875 31.91796875 C24.05326172 32.94857422 24.05326172 32.94857422 24 34 C19.5055332 35.65585619 15.06880492 36.61728014 10.3671875 37.4375 C7.98793932 37.90215119 7.98793932 37.90215119 5.9609375 39.0546875 C3.70904881 40.14025934 2.23041048 40.20768035 -0.25 40.125 C-1.4875 40.08375 -2.725 40.0425 -4 40 C-4.33 35.71 -4.66 31.42 -5 27 C-2.77149723 26.66225668 -0.54216533 26.3299813 1.6875 26 C2.92886719 25.814375 4.17023437 25.62875 5.44921875 25.4375 C9 25 9 25 14 25 C13.67 21.37 13.34 17.74 13 14 C8.38 13.34 3.76 12.68 -1 12 C-1 4.125 -1 4.125 0 0 Z " fill="#EDC225" transform="translate(58,75)"/>
<path d="M0 0 C7.40774509 1.39304941 14.70170537 3.11899623 22 5 C21.97679687 6.12019531 21.95359375 7.24039063 21.9296875 8.39453125 C21.91092763 9.86718084 21.89272766 11.33983763 21.875 12.8125 C21.85824219 13.55048828 21.84148437 14.28847656 21.82421875 15.04882812 C21.78925372 18.91246426 21.80602445 20.70903668 24 24 C24.25760279 26.69452521 24.08900053 29.28548375 24 32 C6.47328244 39 6.47328244 39 -1 39 C-1 34.71 -1 30.42 -1 26 C5.435 25.505 5.435 25.505 12 25 C12 21.04 12 17.08 12 13 C5.07 12.505 5.07 12.505 -2 12 C-1.125 3.375 -1.125 3.375 0 0 Z " fill="#B87C0F" transform="translate(134,75)"/>
<path d="M0 0 C1.32 0.33 2.64 0.66 4 1 C4.02686553 2.97909398 4.04633375 4.95828971 4.0625 6.9375 C4.07410156 8.03964844 4.08570313 9.14179687 4.09765625 10.27734375 C4 13 4 13 3 14 C2.70321119 15.72490129 2.43764046 17.4552189 2.1875 19.1875 C1.30502392 24.01295432 0.56903069 27.43096931 -3 31 C-11.65858549 35.44813608 -23.13947788 35.44817067 -32.3125 32.6875 C-34.42578125 31.94921875 -34.42578125 31.94921875 -36 31 C-36.33 30.01 -36.66 29.02 -37 28 C-32.3587167 23.3587167 -27.15457947 22.53155434 -21 21 C-17.99109349 20.21796163 -14.99460189 19.39747219 -12 18.5625 C-11.25782227 18.36922119 -10.51564453 18.17594238 -9.75097656 17.97680664 C-6.56307437 17.08025491 -4.37185284 16.39679419 -2.078125 13.94921875 C-1.72234375 13.30597656 -1.3665625 12.66273437 -1 12 C-0.38125 11.13375 -0.38125 11.13375 0.25 10.25 C1.4336444 6.69906681 0.610873 3.66523799 0 0 Z " fill="#361600" transform="translate(117,87)"/>
<path d="M0 0 C6.40122124 1.28024425 6.40122124 1.28024425 9 4 C9.43823242 6.56860352 9.43823242 6.56860352 9.35546875 9.62890625 C9.33806641 10.74716797 9.32066406 11.86542969 9.30273438 13.01757812 C9.26470703 14.18740234 9.22667969 15.35722656 9.1875 16.5625 C9.02159592 23.73683981 8.92847699 30.72347546 9.76635742 37.8581543 C10.06778278 40.62137758 10.09811103 43.34733975 10.0625 46.125 C10.05347656 47.05570313 10.04445312 47.98640625 10.03515625 48.9453125 C10.02355469 49.62335938 10.01195312 50.30140625 10 51 C8.52144705 51.50181191 7.04213942 52.00140076 5.5625 52.5 C4.73878906 52.7784375 3.91507813 53.056875 3.06640625 53.34375 C1 54 1 54 0 54 C0 39.81 0 25.62 0 11 C-2.475 10.01 -2.475 10.01 -5 9 C-3.35 6.03 -1.7 3.06 0 0 Z " fill="#D39B1A" transform="translate(121,75)"/>
<path d="M0 0 C4.8274799 1.41292095 8.7162359 3.42974154 13 6 C13.45022132 14.25405752 11.68063966 21.0904843 7 28 C4.51953125 26.88671875 4.51953125 26.88671875 2 25 C1.51171875 22.08203125 1.51171875 22.08203125 1.6875 18.8125 C1.73261719 17.72582031 1.77773438 16.63914062 1.82421875 15.51953125 C1.88222656 14.68808594 1.94023438 13.85664062 2 13 C-0.31 12.67 -2.62 12.34 -5 12 C-4.52389341 7.00088076 -2.96837781 4.02167317 0 0 Z " fill="#F9DB2D" transform="translate(42,67)"/>
<path d="M0 0 C7.40774509 1.39304941 14.70170537 3.11899623 22 5 C21.55065113 7.12691797 21.09023527 9.25150039 20.625 11.375 C20.24214844 13.15003906 20.24214844 13.15003906 19.8515625 14.9609375 C19 18 19 18 17 20 C14.875 20.625 14.875 20.625 13 21 C13 18.36 13 15.72 13 13 C11.2365625 13.0309375 11.2365625 13.0309375 9.4375 13.0625 C5.52586533 13.06947261 1.85502056 12.64250343 -2 12 C-1.85831863 10.56208484 -1.71148957 9.1246763 -1.5625 7.6875 C-1.48128906 6.88699219 -1.40007812 6.08648437 -1.31640625 5.26171875 C-1 3 -1 3 0 0 Z " fill="#E5B521" transform="translate(134,75)"/>
<path d="M0 0 C0.51949219 0.39832031 1.03898437 0.79664062 1.57421875 1.20703125 C5.27926842 4.02177323 8.93575065 6.71385974 13 9 C15.97 4.545 15.97 4.545 19 0 C22.7364797 0.93411993 25.60899585 2.22742965 29 4 C28.45276317 7.37462715 27.9451 9.08235 26 12 C23.03 11.505 23.03 11.505 20 11 C19.67 11.66 19.34 12.32 19 13 C18.67 12.67 18.34 12.34 18 12 C17.34 12.66 16.68 13.32 16 14 C12.875 13.625 12.875 13.625 10 13 C9.67 13.66 9.34 14.32 9 15 C8.67 14.34 8.34 13.68 8 13 C6.68 13.33 5.36 13.66 4 14 C3.5875 13.34 3.175 12.68 2.75 12 C2.1725 11.34 1.595 10.68 1 10 C-0.32 10 -1.64 10 -3 10 C-2.25 3.375 -2.25 3.375 0 0 Z " fill="#F5DA2D" transform="translate(87,67)"/>
<path d="M0 0 C7.75 0.875 7.75 0.875 10 2 C10.4140625 4.50390625 10.4140625 4.50390625 10.625 7.5625 C10.69976562 8.57441406 10.77453125 9.58632812 10.8515625 10.62890625 C10.90054688 11.41136719 10.94953125 12.19382812 11 13 C4.53205867 14.51233701 -1.35590042 15.21432579 -8 15 C-8.33 16.32 -8.66 17.64 -9 19 C-9 17.35 -9 15.7 -9 14 C-9.66 14 -10.32 14 -11 14 C-9.58192622 9.52761347 -7.88695626 5.28853694 -6 1 C-3.69 1.66 -1.38 2.32 1 3 C0.67 2.01 0.34 1.02 0 0 Z " fill="#2C1300" transform="translate(61,87)"/>
<path d="M0 0 C2.0625 1.6875 2.0625 1.6875 4 4 C3.82813436 7.52324572 2.98272184 9.02591724 1 12 C2.32 12.99 3.64 13.98 5 15 C4.67 15.66 4.34 16.32 4 17 C3.01 16.67 2.02 16.34 1 16 C1.350625 16.680625 1.70125 17.36125 2.0625 18.0625 C3.24958641 21.7820374 2.92419296 24.23213639 2 28 C-1.16240582 30.10827055 -2.50657469 30.33817465 -6.1875 30.625 C-7.08855469 30.69976562 -7.98960938 30.77453125 -8.91796875 30.8515625 C-9.60503906 30.90054688 -10.29210937 30.94953125 -11 31 C-8.4345406 28.4345406 -6.52313332 28.45953913 -3 28 C-3.59637091 26.41371392 -4.20245925 24.83107941 -4.8125 23.25 C-5.14894531 22.36828125 -5.48539062 21.4865625 -5.83203125 20.578125 C-6.8946859 17.95455325 -6.8946859 17.95455325 -8.69921875 15.859375 C-9.12847656 15.24578125 -9.55773437 14.6321875 -10 14 C-9 11 -9 11 -6.6875 9.8125 C-2.94424469 7.28797898 -1.73117058 4.07163583 0 0 Z " fill="#452002" transform="translate(116,71)"/>
<path d="M0 0 C6.43883921 1.28776784 6.43883921 1.28776784 9 4 C9.27050781 6.54370117 9.27050781 6.54370117 8.953125 9.54296875 C8.7984375 11.15268555 8.7984375 11.15268555 8.640625 12.79492188 C8.51171875 13.91447266 8.3828125 15.03402344 8.25 16.1875 C8.1365625 17.31865234 8.023125 18.44980469 7.90625 19.61523438 C7.6229656 22.41266779 7.32018704 25.20658952 7 28 C5.35 28.33 3.7 28.66 2 29 C1.93941406 28.03578125 1.87882812 27.0715625 1.81640625 26.078125 C1.73261719 24.81484375 1.64882812 23.5515625 1.5625 22.25 C1.48128906 20.99703125 1.40007812 19.7440625 1.31640625 18.453125 C1.01189986 14.63986834 1.01189986 14.63986834 0 11 C-2.49034386 9.70339566 -2.49034386 9.70339566 -5 9 C-3.35 6.03 -1.7 3.06 0 0 Z " fill="#F4D32B" transform="translate(121,75)"/>
<path d="M0 0 C4.29926263 1.59231949 6.35005733 4.39313359 9 8 C9 8.99 9 9.98 9 11 C1.08 12.485 1.08 12.485 -7 14 C-6.67 17.3 -6.34 20.6 -6 24 C-2.19426241 23.08137368 1.49468214 22.17834748 5.1875 20.875 C7.9695597 20.00947031 10.10914345 19.82994961 13 20 C9.78163043 21.71337661 6.51221914 22.95044241 3.0625 24.125 C1.53302734 24.65480469 1.53302734 24.65480469 -0.02734375 25.1953125 C-2.84947867 25.95925441 -5.09707535 26.16038258 -8 26 C-7.98839844 25.07316406 -7.97679688 24.14632812 -7.96484375 23.19140625 C-7.95582031 21.99386719 -7.94679688 20.79632813 -7.9375 19.5625 C-7.92589844 18.36753906 -7.91429688 17.17257813 -7.90234375 15.94140625 C-7.66098208 13.11126659 -7.66098208 13.11126659 -9 12 C-9.23880597 4.47761194 -9.23880597 4.47761194 -8 2 C-0.17847534 2.03408072 -0.17847534 2.03408072 2.7109375 4.40234375 C4.0625 6.0625 4.0625 6.0625 6 9 C4.47291037 5.56404834 2.40072955 2.88087546 0 0 Z " fill="#5A2B03" transform="translate(92,82)"/>
<path d="M0 0 C2.97903734 2.97903734 4 5.80285329 4 10 C2.90300781 10.33773437 1.80601563 10.67546875 0.67578125 11.0234375 C-0.77867907 11.47385102 -2.23310431 11.92437784 -3.6875 12.375 C-4.40873047 12.59671875 -5.12996094 12.8184375 -5.87304688 13.046875 C-8.90988048 13.98981877 -11.86912067 14.94619405 -14.8125 16.15625 C-17.61407506 17.23685752 -20.02582415 17.13833376 -23 17 C-23.33 14.36 -23.66 11.72 -24 9 C-23.10539062 8.89042969 -22.21078125 8.78085938 -21.2890625 8.66796875 C-13.93531018 7.70367074 -7.01499845 6.42453863 0 4 C0 2.68 0 1.36 0 0 Z " fill="#E7B320" transform="translate(109,89)"/>
<path d="M0 0 C0.33 0 0.66 0 1 0 C1 3.3 1 6.6 1 10 C-3.4944668 11.65585619 -7.93119508 12.61728014 -12.6328125 13.4375 C-15.01206068 13.90215119 -15.01206068 13.90215119 -17.0390625 15.0546875 C-19.29095119 16.14025934 -20.76958952 16.20768035 -23.25 16.125 C-24.4875 16.08375 -25.725 16.0425 -27 16 C-27.33 11.71 -27.66 7.42 -28 3 C-27.01 3.495 -27.01 3.495 -26 4 C-26.33 5.32 -26.66 6.64 -27 8 C-26.08734375 7.89171875 -26.08734375 7.89171875 -25.15625 7.78125 C-16.75550659 6.89175952 -8.434376 6.90475611 0 7 C0 4.69 0 2.38 0 0 Z " fill="#DBA61D" transform="translate(81,99)"/>
<path d="M0 0 C1.670625 0.5259375 1.670625 0.5259375 3.375 1.0625 C6.80264476 2.37239331 6.80264476 2.37239331 9 1 C9 3.31 9 5.62 9 8 C3.15111957 9.01894076 -2.50919169 9.11798453 -8.4375 9.0625 C-9.35982422 9.05798828 -10.28214844 9.05347656 -11.23242188 9.04882812 C-13.48835048 9.03713938 -15.74413967 9.02075455 -18 9 C-17.67 7.35 -17.34 5.7 -17 4 C-15.10507994 3.66151348 -13.20901534 3.32943089 -11.3125 3 C-9.72888672 2.7215625 -9.72888672 2.7215625 -8.11328125 2.4375 C-5.35095938 2.04931926 -2.78257957 1.91740024 0 2 C0 1.34 0 0.68 0 0 Z " fill="#EBBA22" transform="translate(72,98)"/>
<path d="M0 0 C0 2.64 0 5.28 0 8 C-17.52671756 15 -17.52671756 15 -25 15 C-24.67 13.68 -24.34 12.36 -24 11 C-23.67 11.66 -23.34 12.32 -23 13 C-21.51746733 12.38302681 -20.03904826 11.75616104 -18.5625 11.125 C-17.73878906 10.77695313 -16.91507813 10.42890625 -16.06640625 10.0703125 C-13.84253285 9.1755063 -13.84253285 9.1755063 -13 7 C-12.01 7 -11.02 7 -10 7 C-10 6.34 -10 5.68 -10 5 C-9.01 4.67 -8.02 4.34 -7 4 C-6.34 3.01 -5.68 2.02 -5 1 C-3.28761215 0.42920405 -1.80987317 0 0 0 Z " fill="#A0680B" transform="translate(158,99)"/>
<path d="M0 0 C4.58894201 0.67069152 8.92547207 1.76122296 13.375 3.0625 C14.62023437 3.42472656 15.86546875 3.78695312 17.1484375 4.16015625 C18.08945313 4.43730469 19.03046875 4.71445313 20 5 C20 5.66 20 6.32 20 7 C14.26872947 10.82084702 6.54970777 9.13907961 0 8 C0 5.36 0 2.72 0 0 Z " fill="#F6DB2E" transform="translate(59,75)"/>
<path d="M0 0 C7.75 0.875 7.75 0.875 10 2 C10.4140625 4.50390625 10.4140625 4.50390625 10.625 7.5625 C10.69976562 8.57441406 10.77453125 9.58632812 10.8515625 10.62890625 C10.90054688 11.41136719 10.94953125 12.19382812 11 13 C9.39884424 13.2493357 7.79379841 13.47378648 6.1875 13.6875 C5.29417969 13.81511719 4.40085937 13.94273438 3.48046875 14.07421875 C1 14 1 14 -0.84375 12.6875 C-2 11 -2 11 -1.6875 8.3125 C-1.460625 7.549375 -1.23375 6.78625 -1 6 C1.31 6 3.62 6 6 6 C6.66 7.32 7.32 8.64 8 10 C8.33 7.69 8.66 5.38 9 3 C6.69 3.33 4.38 3.66 2 4 C1.34 2.68 0.68 1.36 0 0 Z " fill="#371800" transform="translate(61,87)"/>
<path d="M0 0 C7.24705882 0.82352941 7.24705882 0.82352941 10 4 C10.25 7.6875 10.25 7.6875 10 11 C7.36 11 4.72 11 2 11 C2 13.31 2 15.62 2 18 C1.67 18 1.34 18 1 18 C0.10395632 11.95170514 -0.11269443 6.1105424 0 0 Z " fill="#2D1400" transform="translate(131,90)"/>
<path d="M0 0 C0.33 0.66 0.66 1.32 1 2 C3.32156597 2.40729228 5.6568787 2.74438677 8 3 C8.33 5.31 8.66 7.62 9 10 C12.465 9.505 12.465 9.505 16 9 C16 6.36 16 3.72 16 1 C16.66 1 17.32 1 18 1 C17.65532373 8.23820173 15.89785009 12.91590189 12 19 C9.51953125 17.88671875 9.51953125 17.88671875 7 16 C6.51171875 13.08203125 6.51171875 13.08203125 6.6875 9.8125 C6.73261719 8.72582031 6.77773438 7.63914062 6.82421875 6.51953125 C6.88222656 5.68808594 6.94023438 4.85664062 7 4 C4.69 3.67 2.38 3.34 0 3 C0 2.01 0 1.02 0 0 Z " fill="#D2A11C" transform="translate(37,76)"/>
<path d="M0 0 C0.33 0 0.66 0 1 0 C1.33 11.88 1.66 23.76 2 36 C2.66 35.34 3.32 34.68 4 34 C5.485 33.505 5.485 33.505 7 33 C7.99 32.505 7.99 32.505 9 32 C9 30.35 9 28.7 9 27 C9.33 27 9.66 27 10 27 C10 30.63 10 34.26 10 38 C1.125 41 1.125 41 0 41 C0 27.47 0 13.94 0 0 Z " fill="#97610B" transform="translate(121,88)"/>
<path d="M0 0 C1.6256807 0.30893932 3.25052748 0.6222695 4.875 0.9375 C5.77992188 1.11152344 6.68484375 1.28554687 7.6171875 1.46484375 C10 2 10 2 12 3 C12 3.66 12 4.32 12 5 C10.171875 6.5078125 10.171875 6.5078125 7.75 8.125 C6.96109375 8.66382812 6.1721875 9.20265625 5.359375 9.7578125 C3 11 3 11 -1 11 C-1.125 3.375 -1.125 3.375 0 0 Z " fill="#F0CB28" transform="translate(134,75)"/>
<path d="M0 0 C1.4321146 2.8642292 0.53266189 4.45581499 -0.3125 7.5 C-0.70888672 8.96953125 -0.70888672 8.96953125 -1.11328125 10.46875 C-2 13 -2 13 -4 15 C-6.125 15.625 -6.125 15.625 -8 16 C-8 13.36 -8 10.72 -8 8 C-10.64 8 -13.28 8 -16 8 C-16 7.67 -16 7.34 -16 7 C-15.39671875 6.96261719 -14.7934375 6.92523438 -14.171875 6.88671875 C-8.00632228 6.43746659 -8.00632228 6.43746659 -3 3 C-3.66 2.34 -4.32 1.68 -5 1 C-3.35 0.67 -1.7 0.34 0 0 Z " fill="#D79F1B" transform="translate(155,80)"/>
<path d="M0 0 C1.125 3.75 1.125 3.75 0 6 C0.86625 5.814375 1.7325 5.62875 2.625 5.4375 C6.05152628 4.99332067 8.64212371 5.28045508 12 6 C12 6.66 12 7.32 12 8 C12.66 8 13.32 8 14 8 C14 9.98 14 11.96 14 14 C11.69 14.33 9.38 14.66 7 15 C6.67 12.69 6.34 10.38 6 8 C3.69 7.67 1.38 7.34 -1 7 C-0.67 4.69 -0.34 2.38 0 0 Z " fill="#F3CB28" transform="translate(39,71)"/>
<path d="M0 0 C0.33 0 0.66 0 1 0 C1 3.3 1 6.6 1 10 C-3.4944668 11.65585619 -7.93119508 12.61728014 -12.6328125 13.4375 C-15.01206068 13.90215119 -15.01206068 13.90215119 -17.0390625 15.0546875 C-19.29095119 16.14025934 -20.76958952 16.20768035 -23.25 16.125 C-24.4875 16.08375 -25.725 16.0425 -27 16 C-27 14.02 -27 12.04 -27 10 C-25.906875 10.185625 -24.81375 10.37125 -23.6875 10.5625 C-20.06375867 11.2578068 -20.06375867 11.2578068 -17 10 C-16.34 10.33 -15.68 10.66 -15 11 C-10.06768016 10.87402719 -5.46974213 10.16277845 -1 8 C-0.67 5.36 -0.34 2.72 0 0 Z " fill="#B78013" transform="translate(81,99)"/>
<path d="M0 0 C1.30062431 3.81516464 0.89369853 7.27561763 0.5625 11.25 C0.46066406 12.51328125 0.35882813 13.7765625 0.25390625 15.078125 C0.17011719 16.04234375 0.08632812 17.0065625 0 18 C-1.65 18.33 -3.3 18.66 -5 19 C-5 14.38 -5 9.76 -5 5 C-3.68 4.34 -2.36 3.68 -1 3 C-0.67 2.01 -0.34 1.02 0 0 Z " fill="#EBB821" transform="translate(128,85)"/>
<path d="M0 0 C-0.33 0.66 -0.66 1.32 -1 2 C-1.66 2 -2.32 2 -3 2 C-3.33 2.66 -3.66 3.32 -4 4 C-5.32226044 4.92250728 -6.68193311 5.79227711 -8.0625 6.625 C-8.79597656 7.07101563 -9.52945313 7.51703125 -10.28515625 7.9765625 C-10.85105469 8.31429687 -11.41695312 8.65203125 -12 9 C-14.1519437 5.77208445 -14.20086443 4.71599191 -14 1 C-9.27616037 0.34843591 -4.78025483 -0.11950637 0 0 Z " fill="#CC9719" transform="translate(147,100)"/>
<path d="M0 0 C2.475 0.99 2.475 0.99 5 2 C4.67 2.66 4.34 3.32 4 4 C3.01 3.67 2.02 3.34 1 3 C1.350625 3.680625 1.70125 4.36125 2.0625 5.0625 C3.24958641 8.7820374 2.92419296 11.23213639 2 15 C-1.16240582 17.10827055 -2.50657469 17.33817465 -6.1875 17.625 C-7.08855469 17.69976562 -7.98960938 17.77453125 -8.91796875 17.8515625 C-9.60503906 17.90054688 -10.29210937 17.94953125 -11 18 C-8.4345406 15.4345406 -6.52313332 15.45953913 -3 15 C-3 13.68 -3 12.36 -3 11 C-1.68 11 -0.36 11 1 11 C0.649375 9.9275 0.29875 8.855 -0.0625 7.75 C-1.23076923 3.07692308 -1.23076923 3.07692308 0 0 Z " fill="#5C3305" transform="translate(116,84)"/>
<path d="M0 0 C0.33 0 0.66 0 1 0 C1.10826289 2.4178712 1.18739789 4.83087556 1.25 7.25 C1.30027344 8.27287109 1.30027344 8.27287109 1.3515625 9.31640625 C1.41864429 12.77111858 1.28073677 14.62808376 -0.828125 17.421875 C-3 19 -3 19 -6 20 C-7 19 -7 19 -7.0625 15.9375 C-7.041875 14.968125 -7.02125 13.99875 -7 13 C-6.38125 12.855625 -5.7625 12.71125 -5.125 12.5625 C-2.96741678 12.06847775 -2.96741678 12.06847775 -1 11 C-0.5316735 8.41394668 -0.5316735 8.41394668 -0.375 5.4375 C-0.30023438 4.42558594 -0.22546875 3.41367188 -0.1484375 2.37109375 C-0.09945312 1.58863281 -0.05046875 0.80617188 0 0 Z " fill="#BA7E10" transform="translate(129,105)"/>
<path d="M0 0 C1 3 1 3 -0.125 6.125 C-2 9 -2 9 -4.6875 9.875 C-5.450625 9.91625 -6.21375 9.9575 -7 10 C-7.103125 9.360625 -7.20625 8.72125 -7.3125 8.0625 C-7.539375 7.381875 -7.76625 6.70125 -8 6 C-8.99 5.67 -9.98 5.34 -11 5 C-10.484375 4.87625 -9.96875 4.7525 -9.4375 4.625 C-6.27297649 3.81358372 -3.13875015 2.9054087 0 2 C0 1.34 0 0.68 0 0 Z " fill="#F0C124" transform="translate(129,80)"/>
<path d="M0 0 C0.99 0.33 1.98 0.66 3 1 C2.34 1 1.68 1 1 1 C1.33 4.3 1.66 7.6 2 11 C5.80573759 10.08137368 9.49468214 9.17834748 13.1875 7.875 C15.9695597 7.00947031 18.10914345 6.82994961 21 7 C17.78163043 8.71337661 14.51221914 9.95044241 11.0625 11.125 C9.53302734 11.65480469 9.53302734 11.65480469 7.97265625 12.1953125 C5 13 5 13 0 13 C0 8.71 0 4.42 0 0 Z " fill="#7F510B" transform="translate(84,95)"/>
<path d="M0 0 C0.33 0 0.66 0 1 0 C1 2.64 1 5.28 1 8 C3.62901288 6.47793991 5.84365964 5.15634036 8 3 C8.3125 5.1875 8.3125 5.1875 8 8 C5.5 10.8125 5.5 10.8125 3 13 C2.01 12.67 1.02 12.34 0 12 C0 8.04 0 4.08 0 0 Z " fill="#C08612" transform="translate(146,88)"/>
<path d="M0 0 C1.32 1.65 2.64 3.3 4 5 C2.42353449 6.32074115 0.83854469 7.63131224 -0.75 8.9375 C-1.63171875 9.66839844 -2.5134375 10.39929688 -3.421875 11.15234375 C-5.76330955 12.83037185 -7.19661127 13.58735166 -10 14 C-9 11 -9 11 -6.6875 9.8125 C-2.94424469 7.28797898 -1.73117058 4.07163583 0 0 Z " fill="#512E05" transform="translate(116,71)"/>
<path d="M0 0 C0.33 0.66 0.66 1.32 1 2 C0 5 0 5 -2 6.0625 C-2.66 6.371875 -3.32 6.68125 -4 7 C-4.33 7.66 -4.66 8.32 -5 9 C-8.63 8.67 -12.26 8.34 -16 8 C-16 7.67 -16 7.34 -16 7 C-15.39671875 6.96261719 -14.7934375 6.92523438 -14.171875 6.88671875 C-8.00632228 6.43746659 -8.00632228 6.43746659 -3 3 C-3.66 2.34 -4.32 1.68 -5 1 C-3.35 0.67 -1.7 0.34 0 0 Z " fill="#DAA31C" transform="translate(155,80)"/>
<path d="M0 0 C0.66 0.33 1.32 0.66 2 1 C2 2.65 2 4.3 2 6 C0.02 6.66 -1.96 7.32 -4 8 C-4.33 6.35 -4.66 4.7 -5 3 C-2.625 1.4375 -2.625 1.4375 0 0 Z " fill="#C88D13" transform="translate(127,111)"/>
<path d="M0 0 C0.66 0 1.32 0 2 0 C2.05386629 2.12472576 2.09273071 4.24983652 2.125 6.375 C2.14820312 7.55835937 2.17140625 8.74171875 2.1953125 9.9609375 C2 13 2 13 0 15 C-2.19218189 10.61563621 -1.15774649 4.63098598 0 0 Z " fill="#482503" transform="translate(79,83)"/>
<path d="M0 0 C7.75 0.875 7.75 0.875 10 2 C10.4140625 4.50390625 10.4140625 4.50390625 10.625 7.5625 C10.69976562 8.57441406 10.77453125 9.58632812 10.8515625 10.62890625 C10.90054688 11.41136719 10.94953125 12.19382812 11 13 C8.5705484 9.3558226 8.83820425 7.28758728 9 3 C6.69 3.33 4.38 3.66 2 4 C1.34 2.68 0.68 1.36 0 0 Z " fill="#744909" transform="translate(61,87)"/>
<path d="M0 0 C1.32 0.33 2.64 0.66 4 1 C4 1.99 4 2.98 4 4 C4.99 4.33 5.98 4.66 7 5 C5.35 5 3.7 5 2 5 C2 5.66 2 6.32 2 7 C-0.97 6.505 -0.97 6.505 -4 6 C-2.68 4.02 -1.36 2.04 0 0 Z " fill="#593106" transform="translate(79,74)"/>
<path d="M0 0 C0 2.64 0 5.28 0 8 C-1.65 8.33 -3.3 8.66 -5 9 C-5.25 6.1875 -5.25 6.1875 -5 3 C-1.9 0 -1.9 0 0 0 Z " fill="#E1AA1E" transform="translate(128,95)"/>
<path d="M0 0 C4.6085709 0.11240417 6.72909798 1.38456232 9.875 4.5625 C10.92932432 5.69669738 11.97534633 6.83892794 13 8 C12.67 8.99 12.34 9.98 12 11 C11.29875 10.071875 10.5975 9.14375 9.875 8.1875 C7.31856361 5.08325581 4.66928744 3.66785793 1 2 C0.67 1.34 0.34 0.68 0 0 Z " fill="#381700" transform="translate(86,81)"/>
<path d="M0 0 C0 0.66 0 1.32 0 2 C-6.625 4.125 -6.625 4.125 -10 3 C-11.33106622 2.65772583 -12.66400079 2.32248257 -14 2 C-9.35150485 -0.3992233 -5.08913926 -0.19957409 0 0 Z " fill="#361B02" transform="translate(77,111)"/>
<path d="M0 0 C2.19219402 2.36689329 2.9871902 3.51727269 3.07421875 6.796875 C2.94660156 7.77140625 2.81898437 8.7459375 2.6875 9.75 C2.56761719 10.73484375 2.44773437 11.7196875 2.32421875 12.734375 C2.21722656 13.48203125 2.11023438 14.2296875 2 15 C1.67 15 1.34 15 1 15 C1 11.7 1 8.4 1 5 C0.34 5 -0.32 5 -1 5 C-0.67 3.35 -0.34 1.7 0 0 Z " fill="#3B1A01" transform="translate(81,94)"/>
<path d="M0 0 C1.65 0 3.3 0 5 0 C4 3 4 3 2 4 C1.59270772 6.32156597 1.25561323 8.6568787 1 11 C0.67 11 0.34 11 0 11 C-0.19491452 9.54263913 -0.38069358 8.08405407 -0.5625 6.625 C-0.66691406 5.81289062 -0.77132812 5.00078125 -0.87890625 4.1640625 C-1 2 -1 2 0 0 Z " fill="#401B01" transform="translate(81,79)"/>
<path d="M0 0 C0.33 0.99 0.66 1.98 1 3 C-0.45017921 5.59505753 -1.34638817 6.77590452 -4.1875 7.75 C-4.785625 7.8325 -5.38375 7.915 -6 8 C-5.75 6.125 -5.75 6.125 -5 4 C-3 2.875 -3 2.875 -1 2 C-0.67 1.34 -0.34 0.68 0 0 Z " fill="#CF9619" transform="translate(153,88)"/>
<path d="M0 0 C1.33333333 2.66666667 2.66666667 5.33333333 4 8 C3.1646875 7.566875 3.1646875 7.566875 2.3125 7.125 C-0.08494645 5.9586747 -2.51596939 4.9660119 -5 4 C-4.67 3.01 -4.34 2.02 -4 1 C-4 1.66 -4 2.32 -4 3 C-2.68 3 -1.36 3 0 3 C0 2.01 0 1.02 0 0 Z " fill="#D8A91E" transform="translate(88,74)"/>
<path d="M0 0 C5.75 1.75 5.75 1.75 8 4 C6.68 4.33 5.36 4.66 4 5 C3.67 4.01 3.34 3.02 3 2 C1.35 2.66 -0.3 3.32 -2 4 C-1.34 2.68 -0.68 1.36 0 0 Z " fill="#E5CC2B" transform="translate(42,67)"/>
<path d="M0 0 C0.33 0 0.66 0 1 0 C1 2.64 1 5.28 1 8 C-0.98 8.66 -2.96 9.32 -5 10 C-4.360625 9.46375 -3.72125 8.9275 -3.0625 8.375 C-0.61470596 5.55632807 -0.33285388 3.66139268 0 0 Z " fill="#915E0C" transform="translate(157,99)"/>
</svg>
